<?xml version="1.0" encoding="UTF-8"?>
<!DOCTYPE svg PUBLIC "-//W3C//DTD SVG 1.1//EN" "http://www.w3.org/Graphics/SVG/1.1/DTD/svg11.dtd">
<svg xmlns="http://www.w3.org/2000/svg" version="1.1" width="782px" height="944px" style="shape-rendering:geometricPrecision; text-rendering:geometricPrecision; image-rendering:optimizeQuality; fill-rule:evenodd; clip-rule:evenodd" xmlns:xlink="http://www.w3.org/1999/xlink">
<g><path style="opacity:1" fill="#312780" d="M -0.5,-0.5 C 260.167,-0.5 520.833,-0.5 781.5,-0.5C 781.5,5.83333 781.5,12.1667 781.5,18.5C 771.231,189.671 761.064,361.004 751,532.5C 742.919,604.101 717.586,668.767 675,726.5C 626.272,789.903 568.105,842.736 500.5,885C 465.83,906.809 429.83,926.309 392.5,943.5C 391.167,943.5 389.833,943.5 388.5,943.5C 311.606,908.244 241.606,862.744 178.5,807C 138.643,770.349 105.143,728.849 78,682.5C 51.1556,635.298 35.1556,584.632 30,530.5C 20.0467,358.664 9.88004,186.997 -0.5,15.5C -0.5,10.1667 -0.5,4.83333 -0.5,-0.5 Z"/></g>
<g><path style="opacity:1" fill="#bfbebf" d="M 21.5,20.5 C 267.5,20.5 513.5,20.5 759.5,20.5C 750.059,187.833 740.559,355.166 731,522.5C 724.67,592.174 701.003,655.174 660,711.5C 615.431,770.408 562.265,819.908 500.5,860C 465.641,882.852 429.141,903.019 391,920.5C 301.765,880.401 223.432,825.068 156,754.5C 112.334,707.2 81.0006,652.533 62,590.5C 55.5516,567.257 51.5516,543.59 50,519.5C 40.5584,353.16 31.0584,186.826 21.5,20.5 Z"/></g>
<g><path style="opacity:1" fill="#594b93" d="M 43.5,41.5 C 274.999,40.5002 506.666,40.1669 738.5,40.5C 738.737,41.791 738.404,42.791 737.5,43.5C 506.502,41.501 275.169,40.8343 43.5,41.5 Z"/></g>
<g><path style="opacity:1" fill="#312783" d="M 43.5,41.5 C 275.169,40.8343 506.502,41.501 737.5,43.5C 728.998,203.868 719.832,364.201 710,524.5C 703.297,590.297 680.297,649.63 641,702.5C 610.205,743.628 574.372,779.795 533.5,811C 489.12,844.875 441.454,873.708 390.5,897.5C 308.099,859.717 235.599,808.05 173,742.5C 140.502,706.868 114.502,666.868 95,622.5C 81.9665,590.366 73.9665,557.033 71,522.5C 61.6116,362.175 52.4449,201.842 43.5,41.5 Z"/></g>
<g><path style="opacity:1" fill="#e20914" d="M 373.5,80.5 C 480.633,78.1335 562.133,122.134 618,212.5C 654.034,278.752 661.368,348.085 640,420.5C 612.703,501.463 559.203,557.297 479.5,588C 383.926,618.899 297.26,602.899 219.5,540C 148.261,474.304 119.427,393.137 133,296.5C 152.392,202.79 205.892,136.957 293.5,99C 319.483,89.2889 346.149,83.1222 373.5,80.5 Z"/></g>
<g><path style="opacity:1" fill="#fefefe" d="M 580.5,265.5 C 517.201,301.111 453.867,336.777 390.5,372.5C 327.436,336.303 264.103,300.636 200.5,265.5C 193.56,260.689 186.226,256.356 178.5,252.5C 177.167,251.833 177.167,251.167 178.5,250.5C 249.268,210.366 320.102,170.366 391,130.5C 461.952,170.617 532.785,210.95 603.5,251.5C 595.603,255.941 587.936,260.608 580.5,265.5 Z"/></g>
<g><path style="opacity:1" fill="#372b86" d="M 440.5,192.5 C 449.351,192.368 451.684,196.202 447.5,204C 437.415,204.76 435.082,200.927 440.5,192.5 Z"/></g>
<g><path style="opacity:1" fill="#352a85" d="M 438.5,228.5 C 437.15,227.517 436.15,226.184 435.5,224.5C 429.797,230.205 423.797,235.538 417.5,240.5C 411.833,236.333 406.167,232.167 400.5,228C 399.549,220.408 395.215,217.408 387.5,219C 379.39,213.527 370.89,208.694 362,204.5C 360.378,204.954 359.212,205.954 358.5,207.5C 367.665,212.581 376.665,217.915 385.5,223.5C 386.323,230.391 389.989,233.058 396.5,231.5C 402.307,235.474 407.974,239.64 413.5,244C 396.389,257.933 378.055,270.1 358.5,280.5C 359.427,282.946 361.094,283.779 363.5,283C 382.447,272.542 400.447,260.709 417.5,247.5C 423.797,252.462 429.797,257.795 435.5,263.5C 436.521,262.099 437.521,260.765 438.5,259.5C 443.893,266.069 448.726,273.069 453,280.5C 454.378,284.987 453.212,288.487 449.5,291C 445.5,291.667 441.5,291.667 437.5,291C 431.755,288.92 426.088,286.754 420.5,284.5C 400.773,296.419 381.106,296.419 361.5,284.5C 356.467,286.233 351.467,288.067 346.5,290C 341.558,291.328 336.558,291.661 331.5,291C 326.704,286.764 326.204,281.93 330,276.5C 334.269,270.28 338.769,264.28 343.5,258.5C 340.923,248.637 340.923,238.804 343.5,229C 337.904,222.732 333.071,215.899 329,208.5C 326.86,204.846 327.027,201.346 329.5,198C 334.047,196.455 338.713,196.121 343.5,197C 349.322,199.163 355.156,201.33 361,203.5C 380.649,191.502 400.315,191.502 420,203.5C 424.956,201.101 430.123,199.435 435.5,198.5C 435.714,200.144 435.38,201.644 434.5,203C 430.888,204.139 427.554,205.806 424.5,208C 428.743,212.408 432.409,217.241 435.5,222.5C 437.817,220.684 439.984,218.684 442,216.5C 445.173,210.819 448.839,205.486 453,200.5C 453.665,205.181 452.665,209.514 450,213.5C 446.334,218.661 442.501,223.661 438.5,228.5 Z"/></g>
<g><path style="opacity:1" fill="#fbfafc" d="M 332.5,201.5 C 341.203,201.124 349.203,203.291 356.5,208C 352.257,212.408 348.591,217.241 345.5,222.5C 338.866,216.894 334.533,209.894 332.5,201.5 Z"/></g>
<g><path style="opacity:1" fill="#f6f5fa" d="M 438.5,228.5 C 438.5,228.833 438.5,229.167 438.5,229.5C 432.524,233.843 426.857,238.677 421.5,244C 426.953,248.485 432.119,253.319 437,258.5C 437.383,257.944 437.883,257.611 438.5,257.5C 438.5,258.167 438.5,258.833 438.5,259.5C 437.521,260.765 436.521,262.099 435.5,263.5C 429.797,257.795 423.797,252.462 417.5,247.5C 400.447,260.709 382.447,272.542 363.5,283C 361.094,283.779 359.427,282.946 358.5,280.5C 378.055,270.1 396.389,257.933 413.5,244C 407.974,239.64 402.307,235.474 396.5,231.5C 389.989,233.058 386.323,230.391 385.5,223.5C 376.665,217.915 367.665,212.581 358.5,207.5C 359.212,205.954 360.378,204.954 362,204.5C 370.89,208.694 379.39,213.527 387.5,219C 395.215,217.408 399.549,220.408 400.5,228C 406.167,232.167 411.833,236.333 417.5,240.5C 423.797,235.538 429.797,230.205 435.5,224.5C 436.15,226.184 437.15,227.517 438.5,228.5 Z"/></g>
<g><path style="opacity:1" fill="#382c86" d="M 438.5,229.5 C 439.206,234.314 439.873,239.147 440.5,244C 439.878,248.52 439.211,253.02 438.5,257.5C 437.883,257.611 437.383,257.944 437,258.5C 432.119,253.319 426.953,248.485 421.5,244C 426.857,238.677 432.524,233.843 438.5,229.5 Z"/></g>
<g><path style="opacity:1" fill="#332883" d="M 200.5,265.5 C 264.103,300.636 327.436,336.303 390.5,372.5C 453.867,336.777 517.201,301.111 580.5,265.5C 590.104,270.973 599.771,276.473 609.5,282C 601.936,286.274 594.602,290.774 587.5,295.5C 521.726,332.223 456.059,369.223 390.5,406.5C 325.139,369.488 259.806,332.488 194.5,295.5C 186.896,291.026 179.23,286.526 171.5,282C 181.229,276.473 190.896,270.973 200.5,265.5 Z"/></g>
<g><path style="opacity:1" fill="#faf9fc" d="M 434.5,265.5 C 440.598,269.287 445.098,274.62 448,281.5C 448.494,283.134 448.66,284.801 448.5,286.5C 439.788,286.978 431.788,284.811 424.5,280C 428.86,275.818 432.193,270.985 434.5,265.5 Z"/></g>
<g><path style="opacity:1" fill="#fbfafd" d="M 344.5,265.5 C 348.205,270.391 352.205,275.224 356.5,280C 329.724,292.737 325.724,287.904 344.5,265.5 Z"/></g>
<g><path style="opacity:1" fill="#fdfdfd" d="M 194.5,295.5 C 259.806,332.488 325.139,369.488 390.5,406.5C 456.059,369.223 521.726,332.223 587.5,295.5C 596.599,300.219 605.599,305.219 614.5,310.5C 607.138,315.177 599.805,319.844 592.5,324.5C 524.897,361.97 457.564,399.97 390.5,438.5C 323.436,399.97 256.103,361.97 188.5,324.5C 181.195,319.844 173.862,315.177 166.5,310.5C 175.927,305.457 185.26,300.457 194.5,295.5 Z"/></g>
<g><path style="opacity:1" fill="#332883" d="M 188.5,324.5 C 256.103,361.97 323.436,399.97 390.5,438.5C 457.564,399.97 524.897,361.97 592.5,324.5C 601.964,328.732 611.298,333.232 620.5,338C 613.613,342.393 606.613,346.56 599.5,350.5C 529.985,390.091 460.319,429.424 390.5,468.5C 320.681,429.424 251.015,390.091 181.5,350.5C 174.528,346.345 167.528,342.178 160.5,338C 169.702,333.232 179.036,328.732 188.5,324.5 Z"/></g>
<g><path style="opacity:1" fill="#fefcfc" d="M 181.5,350.5 C 251.015,390.091 320.681,429.424 390.5,468.5C 460.319,429.424 529.985,390.091 599.5,350.5C 607.62,354.725 615.954,358.725 624.5,362.5C 625.833,363.167 625.833,363.833 624.5,364.5C 546.787,409.023 468.787,453.023 390.5,496.5C 311.933,452.605 233.6,408.272 155.5,363.5C 164.261,359.149 172.927,354.816 181.5,350.5 Z"/></g>
<g><path style="opacity:1" fill="#eb5e41" d="M 262.5,449.5 C 246.658,449.17 230.991,449.504 215.5,450.5C 214.957,450.44 214.624,450.107 214.5,449.5C 230.662,448.173 246.662,448.173 262.5,449.5 Z"/></g>
<g><path style="opacity:1" fill="#c2bdbc" d="M 174.5,450.5 C 183.324,449.343 192.324,449.176 201.5,450C 259.833,483 318.167,516 376.5,549C 383.19,553.214 387.857,559.047 390.5,566.5C 393.898,559.607 398.564,553.774 404.5,549C 462.329,516.586 519.996,483.92 577.5,451C 587.066,449.387 596.733,449.053 606.5,450C 534.662,491.086 462.662,531.92 390.5,572.5C 318.722,531.377 246.722,490.71 174.5,450.5 Z"/></g>
<g><path style="opacity:1" fill="#fffcfb" d="M 215.5,450.5 C 230.991,449.504 246.658,449.17 262.5,449.5C 300.112,470.643 337.779,491.809 375.5,513C 382.917,517.746 388.083,524.246 391,532.5C 393.52,523.309 399.02,516.475 407.5,512C 444.167,491.333 480.833,470.667 517.5,450C 533.833,449.333 550.167,449.333 566.5,450C 507.962,483.367 449.295,516.533 390.5,549.5C 332.302,516.235 273.968,483.235 215.5,450.5 Z"/></g>
<g><path style="opacity:1" fill="#5e4f9c" d="M 290.5,597.5 C 248.33,597.168 206.33,597.501 164.5,598.5C 163.957,598.44 163.624,598.107 163.5,597.5C 205.998,596.169 248.331,596.169 290.5,597.5 Z"/></g>
<g><path style="opacity:1" fill="#5e4f9c" d="M 490.5,597.5 C 532.669,596.169 575.002,596.169 617.5,597.5C 617.376,598.107 617.043,598.44 616.5,598.5C 574.67,597.501 532.67,597.168 490.5,597.5 Z"/></g>
<g><path style="opacity:1" fill="#fefefe" d="M 164.5,598.5 C 206.33,597.501 248.33,597.168 290.5,597.5C 314.978,611.575 339.644,625.408 364.5,639C 371.478,642.643 376.311,648.143 379,655.5C 379.833,676.841 379.666,698.174 378.5,719.5C 307.139,679.155 235.806,638.821 164.5,598.5 Z"/></g>
<g><path style="opacity:1" fill="#fefdfe" d="M 490.5,597.5 C 532.67,597.168 574.67,597.501 616.5,598.5C 545.194,638.821 473.861,679.155 402.5,719.5C 401.334,698.508 401.167,677.508 402,656.5C 403.538,650.588 406.705,645.755 411.5,642C 437.861,627.155 464.194,612.321 490.5,597.5 Z"/></g>
<g><path style="opacity:1" fill="#fdfdfe" d="M 333.5,701.5 C 345.779,708.309 358.112,715.142 370.5,722C 378.367,728.794 379.534,736.628 374,745.5C 359.833,759.667 345.667,773.833 331.5,788C 303.5,788.667 275.5,788.667 247.5,788C 276.368,759.299 305.035,730.465 333.5,701.5 Z"/></g>
<g><path style="opacity:1" fill="#fdfdfe" d="M 445.5,701.5 C 475.249,729.748 504.583,758.581 533.5,788C 505.5,788.667 477.5,788.667 449.5,788C 435.667,774.167 421.833,760.333 408,746.5C 401.612,738.218 402.112,730.385 409.5,723C 421.729,716.059 433.729,708.892 445.5,701.5 Z"/></g>
</svg>
